<?xml version="1.0" encoding="UTF-8"?>
<!DOCTYPE svg PUBLIC "-//W3C//DTD SVG 1.1//EN" "http://www.w3.org/Graphics/SVG/1.1/DTD/svg11.dtd">
<!-- Creator: CorelDRAW X8 -->
<svg xmlns="http://www.w3.org/2000/svg" xml:space="preserve" width="52.922mm" height="52.922mm" version="1.1" style="shape-rendering:geometricPrecision; text-rendering:geometricPrecision; image-rendering:optimizeQuality; fill-rule:evenodd; clip-rule:evenodd"
viewBox="0 0 561 561"
 xmlns:xlink="http://www.w3.org/1999/xlink"
 t="1536996223953"
 p-id="1895">
 <defs>
  <style type="text/css">
   <![CDATA[
    .fil1 {fill:#FEFEFE}
    .fil0 {fill:#1296DB}
   ]]>
  </style>
 </defs>
 <g id="图层_x0020_1">
  <metadata id="CorelCorpID_0Corel-Layer"/>
  <rect class="fil0" width="561" height="561"/>
  <g id="_1775409612064">
   <path class="fil1" d="M514 367l0 -230c0,-50 -40,-90 -90,-90l-287 0c-50,0 -90,40 -90,90l0 287c0,50 40,90 90,90l287 0c44,0 81,-32 88,-74 -23,-10 -127,-55 -180,-81 -41,50 -84,80 -149,80 -64,0 -108,-40 -102,-89 3,-32 25,-84 120,-75 50,5 73,14 114,28 11,-20 20,-41 26,-64l-181 0 0 -18 90 0 0 -32 -110 0 0 -20 110 0 0 -47c0,0 1,-7 9,-7l45 0 0 54 116 0 0 20 -116 0 0 32 95 0c-9,36 -22,68 -39,97 28,10 154,49 154,49l0 0 0 0 0 0zm-338 41c-68,0 -79,-43 -75,-61 3,-18 23,-42 61,-42 44,0 83,12 130,34 -33,43 -74,69 -116,69l0 0 0 0zm0 0z" p-id="1896"/>
  </g>
 </g>
</svg>
