<?xml version="1.0" encoding="UTF-8"?>
<!DOCTYPE svg PUBLIC "-//W3C//DTD SVG 1.1//EN" "http://www.w3.org/Graphics/SVG/1.1/DTD/svg11.dtd">
<!-- Creator: CorelDRAW X8 -->
<svg xmlns="http://www.w3.org/2000/svg" xml:space="preserve" width="39.9536mm" height="11.289mm" version="1.1" style="shape-rendering:geometricPrecision; text-rendering:geometricPrecision; image-rendering:optimizeQuality; fill-rule:evenodd; clip-rule:evenodd"
viewBox="0 0 2689 760"
 xmlns:xlink="http://www.w3.org/1999/xlink">
 <defs>
  <style type="text/css">
   <![CDATA[
    .fil0 {fill:white}
    .fil1 {fill:#0953FF;fill-rule:nonzero}
    .fil2 {fill:white;fill-rule:nonzero}
   ]]>
  </style>
 </defs>
 <g id="图层_x0020_1">
  <metadata id="CorelCorpID_0Corel-Layer"/>
  <path class="fil0" d="M390 13l122 71 123 71c31,17 48,48 48,83l0 142 0 141c0,36 -17,66 -48,84l-123 71 -122 71c-31,17 -66,17 -97,0l-122 -71 -122 -71c-31,-18 -49,-48 -49,-84l0 -141 0 -142c0,-35 18,-66 49,-83l122 -71 122 -71c31,-17 66,-17 97,0zm-7 55l104 60 104 60c26,15 41,42 41,72l0 120 0 120c0,30 -15,56 -41,71l-104 60 -104 60c-26,16 -56,16 -82,0l-104 -60 -105 -60c-26,-15 -41,-41 -41,-71l0 -120 0 -120c0,-30 15,-57 41,-72l105 -60 104 -60c26,-15 56,-15 82,0z"/>
  <g id="_2550746854528">
   <path class="fil1" d="M308 186c-15,-2 -1,-1 -12,-1 -34,-3 -51,20 -51,62l0 45 126 -23 14 39 -140 29 0 216 -53 43 0 -259 0 0 -52 -45 52 0 0 -47c0,-33 9,-59 28,-77 19,-19 43,-28 71,-28 16,0 28,2 37,5l-20 41 0 0z"/>
   <path class="fil1" d="M314 280c57,-11 65,-16 106,-16 73,0 110,39 110,115 0,66 0,151 0,216l-26 -33 -28 -34 9 8c-21,36 -62,46 -103,46 -30,0 -53,-8 -70,-24 -18,-16 -27,-37 -27,-64 0,-57 34,-90 101,-99l90 -13c0,-49 -20,-73 -61,-75 -42,-1 -60,8 -100,15l-1 -42 0 0zm91 152c-25,4 -42,10 -51,19 -10,9 -14,22 -14,38 0,15 5,27 15,36 10,9 24,13 40,13 24,0 43,-8 59,-24 15,-17 22,-37 22,-62l0 -29 -71 9 0 0z"/>
  </g>
  <path class="fil2" d="M959 234c0,3 0,6 -1,9 0,2 -1,4 -1,6 -1,2 -2,3 -4,3 -1,1 -2,2 -3,2l-130 0 0 120 123 0c1,0 2,0 3,1 2,1 3,2 3,3 1,2 2,4 2,6 1,2 1,6 1,9 0,4 0,7 -1,9 0,3 -1,5 -2,6 0,2 -1,3 -3,4 -1,1 -2,1 -3,1l-123 0 0 148c0,1 0,2 -1,3 -1,1 -2,2 -4,3 -2,1 -4,1 -7,2 -3,0 -7,0 -11,0 -5,0 -9,0 -12,0 -3,-1 -5,-1 -7,-2 -2,-1 -3,-2 -4,-3 -1,-1 -1,-2 -1,-3l0 -328c0,-7 2,-12 6,-15 3,-3 7,-4 12,-4l159 0c1,0 2,0 3,1 2,1 3,2 4,3 0,2 1,4 1,7 1,2 1,5 1,9z"/>
  <path id="1" class="fil2" d="M1176 561c0,2 -1,4 -2,5 -2,1 -4,2 -6,3 -3,0 -7,0 -12,0 -4,0 -8,0 -11,0 -3,-1 -5,-2 -6,-3 -1,-1 -2,-3 -2,-5l0 -24c-11,11 -23,20 -36,26 -13,7 -27,10 -42,10 -13,0 -25,-2 -35,-5 -11,-4 -20,-9 -27,-15 -7,-6 -13,-14 -17,-23 -4,-10 -6,-20 -6,-32 0,-14 2,-26 8,-36 6,-11 14,-19 25,-26 10,-7 23,-12 38,-15 16,-3 33,-5 52,-5l34 0 0 -19c0,-10 -1,-18 -3,-25 -2,-8 -5,-14 -10,-19 -4,-5 -10,-8 -17,-11 -7,-2 -16,-3 -26,-3 -11,0 -21,1 -30,4 -9,2 -17,5 -23,9 -7,3 -13,6 -17,8 -4,3 -8,4 -10,4 -1,0 -3,0 -4,-1 -1,0 -2,-1 -3,-3 -1,-1 -1,-3 -1,-5 -1,-3 -1,-5 -1,-8 0,-5 0,-8 1,-11 1,-2 2,-5 5,-7 2,-3 6,-5 12,-9 6,-3 13,-6 21,-9 8,-2 16,-4 26,-6 9,-2 18,-3 28,-3 18,0 33,2 45,6 12,4 22,10 30,18 8,8 13,17 17,29 3,11 5,25 5,40l0 166zm-45 -113l-39 0c-12,0 -23,1 -32,4 -9,2 -16,5 -22,9 -6,4 -11,9 -14,15 -2,5 -4,12 -4,20 0,12 4,23 12,30 8,8 20,11 34,11 12,0 23,-3 33,-9 10,-6 21,-15 32,-27l0 -53z"/>
  <path id="2" class="fil2" d="M1604 561c0,1 0,3 -1,4 -1,1 -2,1 -4,2 -1,1 -4,1 -6,2 -3,0 -7,0 -11,0 -5,0 -9,0 -12,0 -2,-1 -5,-1 -7,-2 -1,-1 -2,-1 -3,-2 -1,-1 -1,-3 -1,-4l0 -150c0,-10 -1,-20 -3,-28 -2,-9 -5,-16 -9,-22 -4,-7 -9,-11 -15,-15 -6,-3 -13,-5 -22,-5 -10,0 -21,4 -31,13 -10,8 -22,19 -35,35l0 172c0,1 0,3 -1,4 0,1 -2,1 -3,2 -2,1 -4,1 -7,2 -3,0 -7,0 -11,0 -5,0 -8,0 -11,0 -3,-1 -6,-1 -7,-2 -2,-1 -3,-1 -4,-2 -1,-1 -1,-3 -1,-4l0 -150c0,-10 -1,-20 -3,-28 -2,-9 -5,-16 -9,-22 -4,-7 -9,-11 -15,-15 -6,-3 -13,-5 -22,-5 -10,0 -21,4 -31,13 -11,8 -22,19 -35,35l0 172c0,1 0,3 -1,4 -1,1 -2,1 -3,2 -2,1 -4,1 -7,2 -3,0 -7,0 -12,0 -4,0 -8,0 -11,0 -3,-1 -5,-1 -7,-2 -1,-1 -3,-1 -3,-2 -1,-1 -1,-3 -1,-4l0 -246c0,-2 0,-3 1,-4 0,-1 1,-2 3,-3 2,-1 4,-1 6,-1 3,-1 6,-1 11,-1 4,0 7,0 10,1 2,0 4,0 6,1 1,1 2,2 3,3 0,1 1,2 1,4l0 32c14,-15 27,-27 40,-34 13,-7 27,-11 40,-11 10,0 19,1 27,4 8,2 16,5 22,10 6,4 11,9 16,15 4,6 8,13 11,20 8,-9 16,-16 23,-23 7,-6 14,-11 21,-15 7,-4 14,-6 20,-8 7,-2 13,-3 20,-3 16,0 29,3 40,9 10,5 19,13 26,22 6,9 11,20 14,33 3,12 4,25 4,39l0 156z"/>
  <path id="3" class="fil2" d="M1789 543c0,5 0,9 -1,12 -1,3 -2,6 -4,7 -1,2 -3,3 -6,4 -3,1 -6,2 -10,3 -4,1 -8,2 -12,2 -4,1 -8,1 -12,1 -13,0 -24,-1 -33,-5 -9,-3 -17,-8 -23,-15 -5,-7 -10,-16 -12,-26 -3,-11 -4,-23 -4,-37l0 -144 -35 0c-2,0 -5,-1 -6,-4 -2,-3 -3,-8 -3,-14 0,-4 0,-7 1,-9 0,-2 1,-4 2,-6 0,-1 1,-3 2,-3 2,-1 3,-1 4,-1l35 0 0 -59c0,-1 0,-2 1,-3 0,-1 2,-2 3,-3 2,-1 4,-1 7,-2 3,0 7,0 11,0 5,0 9,0 12,0 3,1 5,1 7,2 1,1 2,2 3,3 1,1 1,2 1,3l0 59 63 0c1,0 3,0 4,1 1,0 2,2 3,3 0,2 1,4 1,6 1,2 1,5 1,9 0,6 -1,11 -3,14 -1,3 -3,4 -6,4l-63 0 0 137c0,17 3,30 8,39 5,8 14,13 26,13 5,0 8,-1 12,-2 3,-1 6,-1 8,-2 3,-1 5,-2 7,-3 2,-1 3,-1 5,-1 1,0 1,0 2,1 1,0 2,1 2,2 1,1 1,3 1,5 1,3 1,5 1,9z"/>
  <path id="4" class="fil2" d="M2041 561c0,1 -1,3 -1,4 -1,1 -2,1 -4,2 -2,1 -4,1 -7,2 -3,0 -6,0 -11,0 -5,0 -8,0 -11,0 -3,-1 -5,-1 -7,-2 -2,-1 -3,-1 -4,-2 0,-1 -1,-3 -1,-4l0 -144c0,-14 -1,-26 -3,-34 -2,-9 -5,-16 -10,-22 -4,-7 -9,-11 -16,-15 -6,-3 -14,-5 -23,-5 -11,0 -22,4 -33,13 -12,8 -23,19 -36,35l0 172c0,1 0,3 -1,4 -1,1 -2,1 -3,2 -2,1 -4,1 -7,2 -3,0 -7,0 -11,0 -5,0 -9,0 -11,0 -3,-1 -6,-1 -7,-2 -2,-1 -3,-1 -4,-2 -1,-1 -1,-3 -1,-4l0 -365c0,-2 0,-3 1,-4 1,-1 2,-2 4,-3 1,-1 4,-1 7,-2 2,0 6,0 11,0 4,0 8,0 11,0 3,1 5,1 7,2 1,1 2,2 3,3 1,1 1,2 1,4l0 147c13,-14 26,-24 39,-31 13,-6 27,-10 40,-10 16,0 30,3 41,9 11,5 20,13 27,22 7,9 12,20 15,33 3,12 5,27 5,45l0 150z"/>
  <path id="5" class="fil2" d="M2149 561c0,1 -1,3 -1,4 -1,1 -2,1 -4,2 -2,1 -4,1 -7,2 -3,0 -7,0 -11,0 -5,0 -8,0 -11,0 -3,-1 -5,-1 -7,-2 -2,-1 -3,-1 -4,-2 0,-1 -1,-3 -1,-4l0 -246c0,-2 1,-3 1,-4 1,-1 2,-2 4,-3 2,0 4,-1 7,-1 3,-1 6,-1 11,-1 4,0 8,0 11,1 3,0 5,1 7,1 2,1 3,2 4,3 0,1 1,2 1,4l0 246zm5 -329c0,10 -2,18 -6,21 -4,4 -12,6 -23,6 -10,0 -17,-2 -21,-5 -4,-4 -6,-11 -6,-22 0,-10 2,-18 6,-21 4,-4 11,-6 22,-6 11,0 18,2 22,5 4,4 6,11 6,22z"/>
  <path id="6" class="fil2" d="M2424 561c0,1 -1,3 -1,4 -1,1 -2,1 -4,2 -2,1 -4,1 -7,2 -3,0 -6,0 -11,0 -4,0 -8,0 -11,0 -3,-1 -5,-1 -7,-2 -2,-1 -3,-1 -4,-2 0,-1 -1,-3 -1,-4l0 -144c0,-14 -1,-26 -3,-34 -2,-9 -5,-16 -9,-22 -5,-7 -10,-11 -17,-15 -6,-3 -14,-5 -23,-5 -11,0 -22,4 -33,13 -12,8 -23,19 -36,35l0 172c0,1 0,3 -1,4 0,1 -2,1 -3,2 -2,1 -4,1 -7,2 -3,0 -7,0 -11,0 -5,0 -9,0 -11,0 -3,-1 -6,-1 -7,-2 -2,-1 -3,-1 -4,-2 -1,-1 -1,-3 -1,-4l0 -246c0,-2 0,-3 1,-4 0,-1 1,-2 3,-3 2,-1 4,-1 6,-1 3,-1 6,-1 11,-1 4,0 7,0 10,1 2,0 4,0 6,1 1,1 2,2 3,3 1,1 1,2 1,4l0 32c14,-15 28,-27 41,-34 14,-7 28,-11 42,-11 16,0 30,3 41,9 11,5 20,13 27,22 7,9 12,20 15,33 3,12 5,27 5,45l0 150z"/>
  <path id="7" class="fil2" d="M2689 561c0,1 -1,2 -2,3 0,2 -2,2 -3,3 -2,1 -4,1 -8,2 -3,0 -7,0 -11,0 -5,0 -9,0 -12,0 -4,0 -6,-1 -8,-1 -3,-1 -4,-2 -6,-3 -1,-1 -2,-3 -3,-4l-104 -137 0 137c0,1 -1,3 -1,4 -1,1 -2,1 -4,2 -2,1 -4,1 -7,2 -3,0 -6,0 -11,0 -5,0 -8,0 -11,0 -3,-1 -5,-1 -7,-2 -2,-1 -3,-1 -4,-2 0,-1 -1,-3 -1,-4l0 -365c0,-2 1,-3 1,-4 1,-1 2,-2 4,-3 2,-1 4,-1 7,-2 3,0 6,0 11,0 5,0 8,0 11,0 3,1 5,1 7,2 2,1 3,2 4,3 0,1 1,2 1,4l0 222 92 -102c2,-2 3,-4 5,-5 2,-1 4,-2 6,-3 2,-1 5,-1 8,-1 3,-1 7,-1 11,-1 5,0 9,0 12,1 3,0 5,0 7,1 2,1 3,1 4,2 1,1 1,3 1,4 0,3 0,5 -1,7 -2,2 -3,5 -6,8l-89 89 100 130c2,3 4,5 5,7 1,2 2,4 2,6z"/>
 </g>
</svg>
