<?xml version="1.0" encoding="UTF-8"?>
<!DOCTYPE svg PUBLIC "-//W3C//DTD SVG 1.1//EN" "http://www.w3.org/Graphics/SVG/1.1/DTD/svg11.dtd">
<!-- Creator: CorelDRAW X8 -->
<svg xmlns="http://www.w3.org/2000/svg" xml:space="preserve" width="141.148mm" height="156.944mm" version="1.1" style="shape-rendering:geometricPrecision; text-rendering:geometricPrecision; image-rendering:optimizeQuality; fill-rule:evenodd; clip-rule:evenodd"
viewBox="0 0 2068 2300"
 xmlns:xlink="http://www.w3.org/1999/xlink">
 <defs>
  <style type="text/css">
   <![CDATA[
    .fil0 {fill:#1890FF}
    .fil1 {fill:#1890FF;fill-rule:nonzero}
   ]]>
  </style>
 </defs>
 <g id="图层_x0020_1">
  <metadata id="CorelCorpID_0Corel-Layer"/>
  <path class="fil0" d="M1181 40l370 214 371 214c93,54 146,146 146,254l0 428 0 428c0,108 -53,200 -146,254l-371 214 -370 214c-93,53 -200,53 -293,0l-371 -214 -370 -214c-94,-54 -147,-146 -147,-254l0 -428 0 -428c0,-108 53,-200 147,-254l370 -214 371 -214c93,-53 200,-53 293,0zm-22 167l315 182 315 181c79,46 125,125 125,216l0 364 0 364c0,91 -46,170 -125,216l-315 181 -315 182c-79,46 -170,46 -249,0l-315 -182 -315 -181c-80,-46 -125,-125 -125,-216l0 -364 0 -364c0,-91 45,-170 125,-216l315 -181 315 -182c79,-46 170,-46 249,0z"/>
  <g id="_2550746854528">
   <path class="fil1" d="M933 562c-47,-5 -3,-1 -38,-3 -102,-8 -153,63 -153,189l0 137 382 -69 41 117 -423 87 0 655 -161 129 0 -784 0 0 -157 -135 157 0 0 -144c0,-99 28,-177 85,-233 56,-56 129,-84 216,-84 47,0 84,5 111,16l-60 122z"/>
   <path class="fil1" d="M950 848c174,-32 197,-48 321,-48 221,0 332,117 332,349 0,197 0,455 0,652l-78 -99 -83 -103 27 25c-63,109 -189,138 -313,138 -89,0 -160,-24 -213,-72 -52,-48 -79,-113 -79,-195 0,-172 102,-272 305,-300l273 -38c0,-150 -62,-222 -186,-226 -126,-3 -181,23 -303,45l-3 -128zm277 461c-76,10 -128,28 -156,56 -29,28 -43,67 -43,116 0,44 15,80 47,108 31,27 72,41 122,41 71,0 130,-25 176,-75 46,-49 69,-112 69,-187l0 -88 -215 29z"/>
  </g>
 </g>
</svg>
