<?xml version="1.0" encoding="UTF-8"?>
<!DOCTYPE svg PUBLIC "-//W3C//DTD SVG 1.1//EN" "http://www.w3.org/Graphics/SVG/1.1/DTD/svg11.dtd">
<!-- Creator: CorelDRAW X8 -->
<svg xmlns="http://www.w3.org/2000/svg" xml:space="preserve" width="52.922mm" height="52.922mm" version="1.1" style="shape-rendering:geometricPrecision; text-rendering:geometricPrecision; image-rendering:optimizeQuality; fill-rule:evenodd; clip-rule:evenodd"
viewBox="0 0 1911 1911"
 xmlns:xlink="http://www.w3.org/1999/xlink"
 t="1536996262604"
 p-id="3237">
 <defs>
  <style type="text/css">
   <![CDATA[
    .fil1 {fill:#FEFEFE}
    .fil0 {fill:#F08519}
   ]]>
  </style>
 </defs>
 <g id="图层_x0020_1">
  <metadata id="CorelCorpID_0Corel-Layer"/>
  <rect class="fil0" width="1911" height="1911"/>
  <g id="_1775409668512">
   <path class="fil1" d="M1730 956l-355 -153c-13,-6 -19,-22 -13,-36l23 -48c6,-13 22,-19 35,-13l182 85c-73,-289 -334,-502 -646,-502 -241,0 -451,127 -568,317l-105 -31c133,-235 384,-393 673,-393 511,0 774,419 774,774l0 0 0 0zm-1194 152c14,6 19,22 13,36l-22 48c-7,13 -22,19 -36,13l-182 -85c74,289 335,503 647,503 240,0 450,-128 568,-318l105 31c-133,235 -384,393 -673,393 -480,0 -774,-389 -774,-774l354 153 0 0 0 0zm356 111l-239 0c-3,-11 -5,-25 -5,-44 0,-8 1,-16 1,-24 1,-7 3,-15 4,-22l239 0 0 -114 -239 0c-3,-10 -5,-25 -5,-44 0,-7 1,-15 1,-23 1,-8 3,-15 4,-22l187 0 -238 -420c11,-1 23,-3 36,-4 14,0 27,-1 39,-1 12,0 24,1 37,1 13,1 25,3 35,4l212 392 209 -392c11,-1 23,-3 34,-4 12,0 24,-1 36,-1 12,0 24,1 36,1 12,1 24,3 34,4l-234 420 196 0c3,12 4,26 4,41 0,19 -1,35 -4,48l-248 0 0 114 248 0c3,12 4,26 4,42 0,19 -1,35 -4,48l-248 0 0 203c-11,2 -21,3 -33,4 -11,1 -22,1 -33,1 -12,0 -23,0 -34,-1 -11,-1 -22,-2 -32,-4l0 -203 0 0 0 0z" p-id="3238"/>
  </g>
 </g>
</svg>
