<?xml version="1.0" encoding="UTF-8"?>
<!DOCTYPE svg PUBLIC "-//W3C//DTD SVG 1.1//EN" "http://www.w3.org/Graphics/SVG/1.1/DTD/svg11.dtd">
<!-- Creator: CorelDRAW X8 -->
<svg xmlns="http://www.w3.org/2000/svg" xml:space="preserve" width="52.922mm" height="52.922mm" version="1.1" style="shape-rendering:geometricPrecision; text-rendering:geometricPrecision; image-rendering:optimizeQuality; fill-rule:evenodd; clip-rule:evenodd"
viewBox="0 0 9707 9707"
 xmlns:xlink="http://www.w3.org/1999/xlink">
 <defs>
  <style type="text/css">
   <![CDATA[
    .fil0 {fill:#009B4C}
    .fil1 {fill:#FEFEFE;fill-rule:nonzero}
   ]]>
  </style>
 </defs>
 <g id="图层_x0020_1">
  <metadata id="CorelCorpID_0Corel-Layer"/>
  <rect class="fil0" width="9707" height="9707"/>
  <path class="fil1" d="M4854 988c-2184,0 -3955,1771 -3955,3956 0,2185 1771,3954 3955,3954 2183,0 3954,-1771 3954,-3954 0,-2183 -1770,-3956 -3954,-3956zm1598 3760l0 451 -1255 0 0 629 1255 0 0 454 -1255 0 0 903 -686 0 0 -903 -1293 0 0 -454 1293 0 0 -628 -1293 0 0 -450 1091 0 -1335 -2047 786 0 931 1594c51,90 110,203 177,338l14 0c46,-110 108,-228 183,-352l935 -1580 736 0 -1351 2045 1067 0z"/>
 </g>
</svg>
