<?xml version="1.0" standalone="no"?><!DOCTYPE svg PUBLIC "-//W3C//DTD SVG 1.1//EN" "http://www.w3.org/Graphics/SVG/1.1/DTD/svg11.dtd"><svg t="1537003725338" class="icon" style="" viewBox="0 0 1024 1024" version="1.1" xmlns="http://www.w3.org/2000/svg" p-id="7769" xmlns:xlink="http://www.w3.org/1999/xlink" width="200" height="200"><defs><style type="text/css"></style></defs><path d="M745.984 609.28h-12.288c-2.048 0-4.096 1.024-4.608 2.56l-19.968 31.232-20.48-31.232c-1.024-1.536-3.072-2.56-4.608-2.56h-11.264c-2.048 0-4.096 1.024-4.608 3.072-1.024 2.048-1.024 4.096 0.512 5.632l28.672 42.496h-20.992c-3.072 0-5.632 2.56-5.632 5.632v8.192c0 3.072 2.56 5.632 5.632 5.632h22.016v22.016c0 3.072 2.56 5.632 5.632 5.632h10.24c3.072 0 5.632-2.56 5.632-5.632v-22.016h22.016c3.072 0 5.632-2.56 5.632-5.632v-7.68c0-3.072-2.56-5.632-5.632-5.632h-20.48l29.696-42.496c1.024-2.048 1.536-4.096 0.512-5.632-2.56-3.072-4.096-3.584-5.632-3.584z" p-id="7770" fill="#29BB9C"></path><path d="M512 51.2c-254.976 0-460.8 206.336-460.8 460.8s206.336 460.8 460.8 460.8 460.8-206.336 460.8-460.8-206.336-460.8-460.8-460.8z m20.992 310.784c-0.512-12.8 9.216-14.848 19.456-14.848h185.344c10.24 0 19.968 1.024 19.968 14.336 0 13.312-10.752 13.824-19.968 13.824h-185.344c-9.728 0-18.944-1.536-19.456-13.312z m20.992 59.392H737.28c10.24 0 19.968 1.024 19.968 14.336 0 12.8-10.24 13.824-19.968 13.824h-183.296c-10.24 0-20.48-0.512-20.992-13.312-0.512-13.824 10.752-14.848 20.992-14.848z m-9.728 100.864c-4.096-0.512-10.752-8.704-10.24-13.312 0-4.608 6.656-11.264 11.264-12.288 9.216-2.048 18.944-0.512 28.16-0.512 8.704 0 17.92-2.048 26.624 0.512 5.632 1.536 11.776 7.68 13.312 12.8 1.024 4.096-6.144 12.288-11.264 12.8-18.944 1.536-38.4 1.536-57.856 0z m277.504 166.4h-46.08V777.728c0 11.776-9.728 21.504-21.504 21.504h-90.112c-11.776 0-21.504-9.728-21.504-21.504V691.2v-3.072h-46.08c-9.728 0-14.848-11.264-8.704-18.432l112.64-136.704c4.608-5.632 12.8-5.632 17.408 0l112.64 136.704c6.144 7.168 0.512 18.944-8.704 18.944z m10.752-199.168c1.536-65.024 0.512-130.048 0.512-195.072 0-29.184-15.36-45.056-44.544-45.056H230.912c-27.136 0-42.496 14.336-42.496 41.472-0.512 121.856-0.512 244.224 0 366.08 0 28.672 16.384 42.496 45.568 42.496h279.04c2.048 7.68 3.584 14.336 5.12 23.04-6.144 0.512-11.776 1.024-17.408 1.024H221.696c-38.912 0-57.344-18.432-57.344-56.832V275.456c0-29.184 17.92-50.688 48.128-50.688 198.144-0.512 396.8-0.512 594.944 0 29.184 0 50.688 21.504 51.2 50.176 0.512 87.552 0.512 175.104 0.512 263.68-22.016-10.752-27.136-27.136-26.624-49.152zM274.944 588.288c-17.408 0-27.136-9.216-27.136-23.552 0-14.848 9.216-22.528 27.648-23.04 16.384 0 32.256-0.512 48.64 0 10.24 0.512 13.312-4.096 13.312-13.824-1.024-48.128 6.656-37.888-35.84-38.912-9.728-0.512-18.944-0.512-28.672 0-15.872 1.024-23.552-6.656-24.576-21.504-1.024-14.336 9.216-24.064 24.576-25.088 14.848-0.512 29.696 0.512 44.544-0.512 6.144-0.512 17.92-2.56 18.432-5.12 1.536-7.168 0.512-17.408-4.096-23.04-11.776-16.384-26.624-30.72-39.424-46.08-7.168-8.704-15.36-17.408-20.992-26.624-6.656-10.24-8.192-23.552 3.072-29.696 6.144-4.096 20.992-2.048 27.136 3.584 17.408 15.872 32.768 34.304 49.152 51.712 4.096 4.096 7.168 7.68 12.8 13.824 14.848-15.872 28.672-30.208 43.52-45.056l15.36-15.36c12.8-11.776 26.624-13.824 34.304-4.608 11.264 12.8 3.584 23.04-5.632 32.768-13.824 15.872-28.16 30.72-41.984 46.08-6.656 7.168-14.848 14.336-19.456 22.528-3.584 5.632-4.096 13.824-2.56 19.456 1.024 3.072 9.728 5.12 15.36 5.12 14.336 0.512 28.672 0 42.496 0.512 19.456 0.512 28.672 7.68 28.672 24.064 0 15.872-8.192 22.528-27.648 22.528-15.872 0-30.72 0.512-46.592 0-10.752-0.512-15.36 4.096-14.848 14.848 0.512 11.264 0 22.528 0 37.376h61.44c18.432 0 27.136 6.656 27.136 22.528 0.512 16.384-7.168 23.552-26.112 24.064h-61.44c-1.024 13.824-1.024 26.112-2.048 37.376-1.536 12.8-8.192 20.48-22.016 20.992-14.848 0.512-22.528-7.168-24.064-20.992-1.024-11.264 0-23.552 0-37.888-22.528 2.048-42.496 2.048-62.464 1.536z" p-id="7771" fill="#29BB9C"></path><path d="M512 0C229.376 0 0 229.376 0 512s229.376 512 512 512 512-229.376 512-512S794.624 0 512 0z m0 962.56c-248.832 0-450.56-201.728-450.56-450.56s201.728-450.56 450.56-450.56 450.56 201.728 450.56 450.56-201.728 450.56-450.56 450.56z" p-id="7772" fill="#29BB9C"></path></svg>