<?xml version="1.0" encoding="UTF-8"?>
<!DOCTYPE svg PUBLIC "-//W3C//DTD SVG 1.1//EN" "http://www.w3.org/Graphics/SVG/1.1/DTD/svg11.dtd">
<!-- Creator: CorelDRAW X8 -->
<svg xmlns="http://www.w3.org/2000/svg" xml:space="preserve" width="52.922mm" height="52.922mm" version="1.1" style="shape-rendering:geometricPrecision; text-rendering:geometricPrecision; image-rendering:optimizeQuality; fill-rule:evenodd; clip-rule:evenodd"
viewBox="0 0 3258 3258"
 xmlns:xlink="http://www.w3.org/1999/xlink">
 <defs>
  <style type="text/css">
   <![CDATA[
    .fil0 {fill:#52C0E5}
    .fil1 {fill:#FEFEFE;fill-rule:nonzero}
   ]]>
  </style>
 </defs>
 <g id="图层_x0020_1">
  <metadata id="CorelCorpID_0Corel-Layer"/>
  <rect class="fil0" width="3258" height="3258"/>
  <path class="fil1" d="M1992 840c0,232 189,420 423,420 233,0 423,-188 423,-420 0,-231 -190,-419 -423,-419 -234,0 -423,188 -423,419zm0 1578c0,231 189,419 423,419 233,0 423,-188 423,-419 0,-232 -190,-420 -423,-420 -234,0 -423,188 -423,420zm-1572 -721c0,338 277,612 617,612 341,0 617,-274 617,-612 0,-219 -118,-421 -308,-530 -191,-109 -426,-109 -617,0 -190,109 -308,311 -308,530l-1 0z"/>
 </g>
</svg>
