<?xml version="1.0" standalone="no"?><!DOCTYPE svg PUBLIC "-//W3C//DTD SVG 1.1//EN" "http://www.w3.org/Graphics/SVG/1.1/DTD/svg11.dtd"><svg t="1537003747327" class="icon" style="" viewBox="0 0 1024 1024" version="1.1" xmlns="http://www.w3.org/2000/svg" p-id="8519" xmlns:xlink="http://www.w3.org/1999/xlink" width="200" height="200"><defs><style type="text/css"></style></defs><path d="M934.4 650.24H865.28c0.512-2.048 0.512-3.072 0.512-5.12v-129.536c0-18.432-14.848-32.768-32.768-32.768H696.32c-18.432 0-32.768 14.848-32.768 32.768v129.024c0 2.048 0.512 4.096 0.512 5.12h-69.12c-14.848 0-22.528 16.896-13.312 27.648l168.96 206.336c5.632 7.68 18.432 7.68 25.6 0l168.96-206.336c9.216-11.264 2.048-27.648-10.752-27.136z m-103.424-28.16l-34.304 48.64h12.8c9.728 0 17.408 7.68 17.408 17.408v12.288c0 9.728-7.68 17.408-17.408 17.408h-24.576v23.552c0 9.728-7.68 17.408-17.408 17.408H752.64c-9.728 0-17.408-7.68-17.408-17.408v-23.552h-24.576c-9.728 0-17.408-7.68-17.408-17.408v-12.288c0-9.728 7.68-17.408 17.408-17.408h13.824l-32.768-48.64c-2.56-3.072-5.632-8.704-2.048-17.408l0.512-0.512c3.072-6.144 9.216-9.728 15.872-9.728h16.896c5.632 0 11.264 2.56 14.848 7.68l23.552 35.84 22.528-34.816c4.096-5.12 8.704-7.68 14.848-7.68h19.456c6.656 0 12.288 3.584 14.848 9.216s2.048 12.288-2.048 17.408zM797.184 280.576h-234.496c-5.12 0-21.504 0-31.744 10.752-4.096 4.608-9.216 12.288-8.704 25.088 0.512 11.776 5.632 18.944 10.24 23.04 7.68 7.168 17.92 8.704 26.112 8.704h238.08c10.24 0 41.472 0 41.472-33.28 0-23.04-13.824-34.304-40.96-34.304zM797.184 375.296h-231.936c-10.752 0-43.52 0-43.52 35.84 1.024 32.256 32.256 32.256 42.496 32.256h232.448c34.304 0 41.472-18.432 41.472-33.792 0-12.8-5.12-34.304-40.96-34.304zM628.224 470.528c-10.24-3.072-20.48-2.56-29.184-1.536-6.656 0.512-12.8 0.512-19.456 0-9.216-0.512-18.944-1.024-28.672 1.536-12.8 2.56-27.648 16.896-27.648 31.232 0 13.312 12.8 31.232 27.648 33.28h0.512a468.6336 468.6336 0 0 0 75.776 0c11.264-0.512 19.456-9.728 22.528-13.312 6.144-7.68 8.192-15.36 6.144-23.04-3.584-12.8-15.36-24.576-27.648-28.16z" p-id="8520" fill="#EFA100"></path><path d="M967.168 204.8c-1.024-44.032-36.352-78.336-80.896-78.336-249.856-0.512-503.296-0.512-753.152 0-45.056 0.512-76.8 33.792-76.8 80.896v495.104c0 57.344 30.72 88.064 88.576 88.064h352.256c7.168 0 13.824-0.512 21.504-1.024l19.456-1.536-3.072-17.408c-2.048-11.776-4.096-20.992-6.656-30.208l-3.072-11.776H160.256c-29.184 0-41.472-11.264-41.472-37.888-0.512-153.088-0.512-309.248 0-463.36 0-25.088 11.776-36.352 37.888-36.352h705.536c27.648 0 40.448 12.8 40.448 40.96V302.08c0.512 57.856 0.512 117.76-1.024 175.616-0.512 28.16 4.096 58.88 43.52 75.776l22.528 9.728v-24.576c0-110.08 0-223.744-0.512-333.824z" p-id="8521" fill="#EFA100"></path><path d="M425.984 537.6H355.328v-12.288c0-10.752 0.512-19.968 0-29.184 0-5.12 0.512-8.704 2.048-10.752 1.536-1.536 4.608-2.048 9.728-2.048 13.312 0.512 26.624 0.512 39.424 0h19.968c17.408-0.512 40.96-4.608 40.96-35.328 0-32.256-24.064-36.864-41.984-37.376-7.68-0.512-15.872 0-23.552 0-9.728 0-20.48 0-30.72-0.512-5.12 0-11.264-1.536-13.312-2.56-1.536-6.656-0.512-14.336 2.56-18.944 4.608-7.68 11.264-14.336 17.408-20.992 2.048-2.56 4.608-4.608 6.656-7.168 6.144-6.656 11.776-13.312 17.92-19.968 11.264-12.288 23.04-25.6 34.304-38.4 8.192-8.192 26.624-28.16 7.168-50.176-5.12-5.632-11.264-9.216-18.944-9.728-10.752-0.512-22.528 4.608-33.792 14.848L371.712 276.48c-12.288 12.288-23.552 24.064-35.328 36.352-5.12 5.12-9.728 10.24-14.848 15.872l-1.024-1.024c-4.096-4.608-7.168-7.68-10.24-11.264L291.84 296.448c-13.824-15.36-28.16-31.232-44.032-45.568-9.728-9.216-31.232-11.776-41.472-5.12-6.656 3.584-10.752 8.704-12.8 15.36-2.56 9.216 0 19.968 6.656 31.232 6.144 9.216 13.312 17.92 20.48 26.112 2.56 2.56 4.608 5.632 7.168 8.704 5.632 6.656 11.264 12.8 17.408 18.944 11.264 12.288 23.04 25.088 32.256 37.888 4.096 5.632 5.12 15.36 4.096 22.016-3.072 1.024-10.752 2.56-17.408 3.584-10.752 0.512-20.992 0.512-31.744 0.512h-24.576c-11.776 0.512-22.528 4.608-29.184 12.288-6.144 7.168-9.216 15.872-8.704 26.112 1.536 23.04 14.848 35.328 37.888 33.28 11.776-0.512 23.04-0.512 35.328 0 10.24 0.512 17.92 0 24.064 0 6.144 0 12.8-0.512 14.336 0.512 1.024 1.536 1.024 10.24 1.024 18.944v23.552c0 4.608-0.512 7.68-1.536 8.704-1.536 1.536-5.632 2.048-8.192 1.536-13.824-0.512-27.648-0.512-41.472 0h-20.48c-35.84 0-40.96 22.016-40.96 35.328 0 22.528 15.872 36.352 40.96 36.352h71.168c0 4.096 0 8.192-0.512 11.776-0.512 10.752-0.512 20.48 0.512 30.72 2.048 20.48 14.848 32.256 34.816 32.256h2.048c19.968-0.512 31.232-11.264 33.792-32.256 0.512-7.68 1.024-15.872 1.536-24.064 0-5.632 0.512-11.264 1.024-17.408h71.68c14.336 0 25.088-3.072 31.232-10.24 6.144-6.144 8.704-14.848 8.192-26.624 0-21.504-13.312-33.28-40.448-33.28z" p-id="8522" fill="#EFA100"></path></svg>