<?xml version="1.0" standalone="no"?><!DOCTYPE svg PUBLIC "-//W3C//DTD SVG 1.1//EN" "http://www.w3.org/Graphics/SVG/1.1/DTD/svg11.dtd"><svg t="1541580401837" class="icon" style="" viewBox="0 0 1028 1024" version="1.1" xmlns="http://www.w3.org/2000/svg" p-id="3704" xmlns:xlink="http://www.w3.org/1999/xlink" width="32.125" height="32"><defs><style type="text/css"></style></defs><path d="M513.6 1024c-134.4 0-262.4-51.2-364.8-147.2-198.4-198.4-198.4-524.8 0-723.2C251.2 51.2 379.2 0 513.6 0s262.4 51.2 364.8 147.2c198.4 198.4 198.4 524.8 0 723.2C776 972.8 648 1024 513.6 1024zM513.6 64C392 64 283.2 108.8 200 198.4c-172.8 172.8-172.8 460.8 0 633.6C283.2 915.2 392 960 513.6 960s230.4-44.8 313.6-134.4c172.8-172.8 172.8-460.8 0-633.6C744 108.8 635.2 64 513.6 64z" p-id="3705" fill="#666666"></path><path d="M513.6 780.8c-19.2 0-32-12.8-32-32L481.6 268.8C481.6 256 494.4 243.2 513.6 243.2S545.6 256 545.6 268.8l0 480C545.6 768 532.8 780.8 513.6 780.8z" p-id="3706" fill="#666666"></path><path d="M756.8 544 270.4 544C257.6 544 244.8 531.2 244.8 512S257.6 480 270.4 480l480 0c19.2 0 32 12.8 32 32S769.6 544 756.8 544z" p-id="3707" fill="#666666"></path></svg>