<?xml version="1.0" encoding="UTF-8"?>
<!DOCTYPE svg PUBLIC "-//W3C//DTD SVG 1.1//EN" "http://www.w3.org/Graphics/SVG/1.1/DTD/svg11.dtd">
<!-- Creator: CorelDRAW X8 -->
<svg xmlns="http://www.w3.org/2000/svg" xml:space="preserve" width="52.922mm" height="52.922mm" version="1.1" style="shape-rendering:geometricPrecision; text-rendering:geometricPrecision; image-rendering:optimizeQuality; fill-rule:evenodd; clip-rule:evenodd"
viewBox="0 0 733 733"
 xmlns:xlink="http://www.w3.org/1999/xlink"
 t="1536996235602"
 p-id="2553">
 <defs>
  <style type="text/css">
   <![CDATA[
    .fil1 {fill:#FEFEFE}
    .fil0 {fill:#41B035}
   ]]>
  </style>
 </defs>
 <g id="图层_x0020_1">
  <metadata id="CorelCorpID_0Corel-Layer"/>
  <rect class="fil0" width="733" height="733"/>
  <g id="_1809941860064">
   <path class="fil1" d="M294 446c-36,22 -42,-12 -42,-12l-46 -116c-17,-55 16,-25 16,-25 0,0 28,23 49,37 22,14 46,4 46,4l300 -150c-56,-74 -147,-123 -250,-123 -169,0 -306,130 -306,290 0,92 45,174 116,227l-13 79c0,0 -6,23 16,12 14,-7 52,-33 74,-49 36,13 74,20 112,20 0,0 1,0 1,0 168,0 305,-129 305,-289 0,-47 -11,-90 -32,-129 -95,62 -317,207 -346,224l0 0z" p-id="2554"/>
  </g>
 </g>
</svg>
